<svg width="25" height="25" viewBox="0 0 25 25" fill="none" xmlns="http://www.w3.org/2000/svg">
<path d="M17.8108 10.892C17.8033 10.4843 17.7264 10.0808 17.5835 9.69886C17.4567 9.37191 17.2631 9.07503 17.0149 8.82721C16.7668 8.57939 16.4697 8.38608 16.1426 8.25966C15.7606 8.11694 15.3572 8.04009 14.9494 8.03239C14.4222 8.00568 14.2551 8 12.9193 8C11.5835 8 11.4165 8.00568 10.892 8.02898C10.4843 8.03652 10.0808 8.11337 9.69886 8.25625C9.36988 8.3795 9.07197 8.57346 8.82614 8.82443C8.57598 9.07005 8.38212 9.36704 8.25795 9.69489C8.11525 10.0769 8.0384 10.4803 8.03068 10.8881C8.00568 11.417 8 11.5841 8 12.9199C8 14.2557 8.00568 14.4205 8.02898 14.9472C8.0365 15.3549 8.11335 15.7584 8.25625 16.1403C8.38287 16.4671 8.57627 16.7639 8.82408 17.0117C9.07189 17.2595 9.36867 17.4529 9.69545 17.5795C10.0775 17.7223 10.4809 17.7991 10.8886 17.8068C11.4131 17.8301 11.5807 17.8358 12.9159 17.8358C14.2511 17.8358 14.4187 17.8301 14.9432 17.8068C15.3509 17.7993 15.7544 17.7225 16.1364 17.5795C16.4633 17.4531 16.7601 17.2598 17.008 17.0119C17.2558 16.7641 17.4491 16.4672 17.5756 16.1403C17.7182 15.7583 17.7951 15.3549 17.8028 14.9472C17.8261 14.4227 17.8318 14.2551 17.8318 12.9199C17.8318 11.5847 17.8318 11.417 17.8068 10.8926L17.8108 10.892ZM16.9244 14.9091C16.9209 15.221 16.8632 15.53 16.754 15.8222C16.672 16.0344 16.5465 16.2271 16.3857 16.388C16.2248 16.5488 16.0321 16.6743 15.8199 16.7563C15.5276 16.8653 15.2187 16.9229 14.9068 16.9267C14.3881 16.95 14.2324 16.9557 12.9182 16.9557C11.604 16.9557 11.4477 16.95 10.9295 16.9267C10.6176 16.9232 10.3087 16.8655 10.0165 16.7563C9.80304 16.6779 9.61 16.5524 9.4517 16.3892C9.28891 16.2306 9.16352 16.0376 9.08466 15.8244C8.97564 15.5322 8.91798 15.2233 8.9142 14.9114C8.89091 14.3926 8.88523 14.2369 8.88523 12.9227C8.88523 11.6085 8.89091 11.4523 8.9142 10.9341C8.91775 10.6222 8.97542 10.3132 9.08466 10.021C9.16313 9.80709 9.28945 9.61391 9.45398 9.45625C9.61257 9.2934 9.80552 9.168 10.0187 9.0892C10.311 8.98022 10.6199 8.92256 10.9318 8.91875C11.4506 8.89545 11.6062 8.88977 12.9205 8.88977C14.2347 8.88977 14.3909 8.89545 14.9091 8.91875C15.221 8.92233 15.53 8.98 15.8222 9.0892C16.0356 9.16755 16.2287 9.29301 16.3869 9.45625C16.5497 9.61488 16.6751 9.80782 16.754 10.021C16.863 10.3133 16.9206 10.6222 16.9244 10.9341C16.9477 11.4528 16.9534 11.6085 16.9534 12.9227C16.9534 14.2369 16.9477 14.3892 16.9244 14.908V14.9091Z" fill="black"/>
<path d="M12.9218 10.3926C12.422 10.3926 11.9333 10.5408 11.5177 10.8185C11.1021 11.0962 10.7782 11.4909 10.5869 11.9527C10.3956 12.4145 10.3456 12.9227 10.4431 13.4129C10.5406 13.9031 10.7813 14.3535 11.1348 14.7069C11.4882 15.0604 11.9385 15.301 12.4288 15.3986C12.919 15.4961 13.4272 15.446 13.8889 15.2547C14.3507 15.0635 14.7455 14.7395 15.0232 14.3239C15.3009 13.9083 15.4491 13.4197 15.4491 12.9198C15.4489 12.2496 15.1826 11.6069 14.7087 11.133C14.2348 10.659 13.592 10.3927 12.9218 10.3926ZM12.9218 14.5591C12.5976 14.5591 12.2807 14.4629 12.0111 14.2828C11.7415 14.1027 11.5314 13.8467 11.4074 13.5472C11.2833 13.2476 11.2508 12.918 11.3141 12.6001C11.3773 12.2821 11.5335 11.99 11.7627 11.7608C11.992 11.5315 12.284 11.3754 12.602 11.3121C12.92 11.2489 13.2496 11.2814 13.5491 11.4054C13.8486 11.5295 14.1046 11.7396 14.2847 12.0092C14.4649 12.2787 14.561 12.5956 14.561 12.9198C14.5609 13.3545 14.3881 13.7714 14.0807 14.0788C13.7734 14.3862 13.3565 14.5589 12.9218 14.5591V14.5591Z" fill="black"/>
<path d="M16.1376 10.2927C16.1376 10.4093 16.103 10.5233 16.0382 10.6203C15.9733 10.7173 15.8812 10.7929 15.7735 10.8375C15.6657 10.8822 15.5471 10.8939 15.4327 10.8711C15.3183 10.8483 15.2132 10.7922 15.1308 10.7097C15.0483 10.6272 14.9921 10.5221 14.9693 10.4077C14.9466 10.2933 14.9583 10.1747 15.0029 10.067C15.0475 9.95919 15.1231 9.86708 15.2201 9.80228C15.3171 9.73747 15.4311 9.70288 15.5478 9.70288C15.7042 9.70288 15.8542 9.76502 15.9648 9.87562C16.0754 9.98623 16.1376 10.1362 16.1376 10.2927Z" fill="black"/>
</svg>
