<svg width="25" height="25" viewBox="0 0 25 25" fill="none" xmlns="http://www.w3.org/2000/svg">
<path d="M15.7731 8.16448C14.9909 7.41357 13.9084 7 12.7251 7C10.9174 7 9.80565 7.74098 9.19131 8.36254C8.43417 9.12855 8 10.1457 8 11.1531C8 12.4181 8.5291 13.3889 9.41514 13.7501C9.47462 13.7745 9.53447 13.7868 9.59315 13.7868C9.78007 13.7868 9.92818 13.6645 9.97949 13.4683C10.0094 13.3557 10.0787 13.0781 10.1088 12.9575C10.1733 12.7195 10.1212 12.605 9.98055 12.4392C9.72429 12.136 9.60495 11.7774 9.60495 11.3108C9.60495 9.92472 10.637 8.4516 12.5499 8.4516C14.0677 8.4516 15.0106 9.31426 15.0106 10.7029C15.0106 11.5792 14.8218 12.3907 14.479 12.9881C14.2408 13.4032 13.8218 13.898 13.1787 13.898C12.9006 13.898 12.6508 13.7837 12.4932 13.5846C12.3443 13.3963 12.2952 13.1531 12.3551 12.8996C12.4227 12.6132 12.515 12.3144 12.6043 12.0256C12.7671 11.4982 12.921 11 12.921 10.6025C12.921 9.9226 12.5031 9.46578 11.8811 9.46578C11.0906 9.46578 10.4713 10.2687 10.4713 11.2936C10.4713 11.7963 10.6049 12.1722 10.6653 12.3166C10.5658 12.7385 9.97392 15.247 9.86166 15.72C9.79675 15.9961 9.40572 18.177 10.0529 18.351C10.7801 18.5463 11.4301 16.4223 11.4963 16.1822C11.5499 15.987 11.7375 15.2489 11.8525 14.7952C12.2036 15.1333 12.7688 15.3619 13.3188 15.3619C14.3556 15.3619 15.288 14.8953 15.9443 14.0482C16.5809 13.2266 16.9314 12.0814 16.9314 10.8237C16.9314 9.84053 16.5092 8.87126 15.7731 8.16448Z" fill="black"/>
</svg>
