<svg width="25" height="25" viewBox="0 0 25 25" fill="none" xmlns="http://www.w3.org/2000/svg">
<path d="M18.6205 9.11725C18.1833 9.30788 17.721 9.43456 17.2477 9.49339C17.7465 9.19766 18.1195 8.72925 18.296 8.17691C17.829 8.45389 17.318 8.64894 16.7852 8.75361C16.4585 8.4049 16.0346 8.16248 15.5683 8.05783C15.1021 7.95319 14.6152 7.99116 14.1708 8.16681C13.7264 8.34247 13.3452 8.64768 13.0765 9.04282C12.8078 9.43796 12.6642 9.90476 12.6642 10.3826C12.6629 10.5652 12.6819 10.7474 12.721 10.9258C11.7733 10.8792 10.8461 10.6332 9.99995 10.2038C9.15382 9.77436 8.40785 9.1712 7.8108 8.43373C7.50484 8.95759 7.4102 9.57842 7.54618 10.1697C7.68217 10.7609 8.03853 11.278 8.54261 11.6155C8.16559 11.6055 7.79651 11.5049 7.46648 11.3224V11.3519C7.46709 11.902 7.65721 12.4351 8.00481 12.8615C8.35242 13.2878 8.8363 13.5814 9.375 13.6928C9.17107 13.7466 8.96089 13.7729 8.75 13.7712C8.59859 13.7738 8.44733 13.7601 8.29886 13.7303C8.45337 14.202 8.75006 14.6144 9.14822 14.9108C9.54638 15.2073 10.0265 15.3733 10.5227 15.386C9.67959 16.0466 8.63927 16.4053 7.56818 16.4047C7.37828 16.4059 7.1885 16.3949 7 16.3718C8.08924 17.0739 9.35862 17.4454 10.6545 17.4411C11.5466 17.4474 12.431 17.2763 13.2564 16.9379C14.0818 16.5995 14.8317 16.1004 15.4626 15.4697C16.0935 14.839 16.5927 14.0892 16.9314 13.2639C17.27 12.4386 17.4413 11.5542 17.4352 10.6621C17.4352 10.557 17.4318 10.4553 17.4267 10.3542C17.8965 10.0179 18.301 9.5987 18.6205 9.11725V9.11725Z" fill="black"/>
</svg>
